<svg width="1345" height="526" viewBox="0 0 1345 526" fill="none" xmlns="http://www.w3.org/2000/svg">
<rect x="12.5" y="12.5" width="1320" height="501" rx="57.5" fill="#F5DB91" stroke="#F5DB91" stroke-width="25"/>
<rect x="17.5" y="17.5" width="1310" height="491" rx="52.5" fill="#2D2D2F" stroke="#C0925E" stroke-width="15"/>
<g opacity="0.1">
<path d="M726.667 294.848C713.667 339.348 697.167 410.848 754.167 506.848L1284.67 514.848L1323.67 484.348V104.848C1309.17 116.182 1271.37 130.648 1236.17 97.8484C1192.17 56.8484 1157.17 71.8484 1153.67 104.848C1150.17 137.848 1157.17 194.848 1116.67 193.348C1076.17 191.848 1077.67 159.348 1018.67 181.848C959.667 204.348 950.167 294.848 901.667 257.348C853.167 219.848 851.167 207.848 826.167 138.848C801.167 69.8484 744.667 98.8484 732.667 127.348C720.667 155.848 739.667 250.348 726.667 294.848Z" fill="#C0925E" stroke="#C0925E"/>
<path d="M779 480.348C762 444.348 746 388.348 750.5 344.348C755 300.348 756.5 259.348 755 215.848C753.5 172.348 743 58.348 796.5 193.848C850 329.348 885.5 342.348 935.5 314.848C985.5 287.348 975.5 214.848 1036 209.348C1096.5 203.848 1126 256.348 1148 204.848C1170 153.348 1173.5 48.848 1207.5 97.348C1241.5 145.848 1324 166.848 1324 166.848C1324 166.848 1326.88 177.551 1326.67 194.476C1326.69 196.483 1326.65 198.311 1326.5 199.848L1093 309.848L779 480.348Z" fill="#B8DEE9"/>
<path d="M778 497.348C761 461.348 745 405.348 749.5 361.348C754 317.348 755.5 276.348 754 232.848C752.5 189.348 742 75.348 795.5 210.848C849 346.348 884.5 359.348 934.5 331.848C984.5 304.348 974.5 231.848 1035 226.348C1095.5 220.848 1125 273.348 1147 221.848C1169 170.348 1172.5 65.848 1206.5 114.348C1240.5 162.848 1323 183.848 1323 183.848C1323 183.848 1325.88 194.551 1325.67 211.476C1325.69 213.483 1325.65 215.311 1325.5 216.848L1092 326.848L778 497.348Z" fill="#8EBFD0"/>
<path d="M1323 183.848C1323 183.848 1240.5 162.848 1206.5 114.348C1172.5 65.848 1169 170.348 1147 221.848C1125 273.348 1095.5 220.848 1035 226.348C974.5 231.848 984.5 304.348 934.5 331.848C884.5 359.348 849 346.348 795.5 210.848C742 75.348 752.5 189.348 754 232.848C755.5 276.348 754 317.348 749.5 361.348C745 405.348 761 461.348 778 497.348L1092 326.848L1325.5 216.848M1323 183.848C1323 183.848 1326.5 196.848 1325.5 216.848M1323 183.848C1324.17 191.348 1326.3 208.448 1325.5 216.848" stroke="#8EBFD0"/>
<path d="M848.5 508.849C763.5 509.849 778 496.349 779 474.849L788 361.349L811 310.849L828.5 317.849L901.5 370.349L1031.5 317.849L1114.5 305.349L1165.5 251.349L1226 191.349L1325 216.849C1330.83 284.182 1339.5 415.749 1327.5 403.349C1312.5 387.849 1255.5 370.849 1249 389.349C1242.5 407.849 1133 421.849 1095 466.849C1057 511.849 933.5 507.849 848.5 508.849Z" fill="#F5DB91" stroke="#F5DB91"/>
<path d="M818.5 278.349C723.5 104.849 772.5 293.349 777.5 499.349C779.167 495.682 784.8 470.449 794 398.849C805.5 309.349 825.5 316.849 869.5 368.349C913.5 419.849 1010.5 437.349 1022.5 386.849C1034.5 336.349 1140 317.849 1160.5 278.349C1181 238.849 1234 185.349 1258.5 203.849C1278.1 218.649 1311.33 218.682 1325.5 216.849C1307.33 213.515 1265.88 183.169 1206.5 121.849C1160.5 74.3487 1206.22 297.464 1055 270.349C982.5 257.348 913.5 451.849 818.5 278.349Z" fill="#287D92" stroke="#287D92"/>
<path d="M867.5 407.849C799.5 358.849 833.5 407.849 779.5 500.349L772.5 512.849H1199.5C1314 512.849 1281 500.349 1315 481.349C1349 462.349 1327 435.349 1327 407.849C1327 206.849 1298.5 327.849 1139.5 392.849C980.5 457.849 935.5 456.849 867.5 407.849Z" fill="#84A792" stroke="#85A891"/>
<path d="M1152 316.849C1099.5 324.349 1007.5 382.349 1040 408.349C1072.5 434.349 1165.5 325.849 1152 316.849Z" fill="#4A8C92" stroke="#85A891"/>
<path d="M855 368.348C825 335.348 825.5 345.348 816 385.848V391.348C817.691 382.348 824.858 366.748 840 376.348C858.927 388.348 885 401.348 855 368.348Z" fill="#BBFFF0" stroke="#BBFFF0"/>
<path d="M1164.57 335.202C1167.79 328.059 1170.71 321.008 1173.57 314.086C1186.84 281.976 1198.97 252.652 1235.09 229.883C1240.71 226.345 1244.62 224.536 1247.37 224.007C1248.65 223.759 1249.45 223.842 1249.94 223.989C1250.39 224.123 1250.87 224.39 1251.43 225.032C1252.73 226.532 1254.14 229.693 1255.32 235.75C1256.46 241.639 1257.27 249.522 1257.95 259.753C1258.51 268.106 1254.06 278.066 1245.08 289.184C1236.21 300.157 1223.55 311.487 1209.24 322.42C1188.13 338.546 1163.83 353.498 1143.8 364.84C1151.81 356.26 1159.65 346.11 1164.57 335.202Z" fill="#BBFFF0" stroke="#E8CC7C" stroke-width="10"/>
<path d="M1075 290.848C1061 263.348 1013 303.848 947 347.848C926.5 369.348 857 358.848 923 384.348C974.554 404.266 983.5 401.348 1020 347.848C1056.5 294.348 1089 318.348 1075 290.848Z" fill="#D7C88F" stroke="#CBC8A4" stroke-width="10"/>
<path d="M1043.8 304.021C1034.55 282.032 1002.84 314.416 959.233 349.597C945.689 366.788 899.769 358.393 943.376 378.782C977.438 394.709 983.349 392.375 1007.46 349.597C1031.58 306.819 1053.05 326.01 1043.8 304.021Z" fill="#D8E9EE" stroke="#B8DEE9" stroke-width="10"/>
<path d="M1249 392.848C1302 291.848 1316 389.848 1326.5 420.848V470.848L1293.5 510.848H1236H811.5C830.167 509.848 897.2 503.448 1016 485.848C1164.5 463.848 1196 493.848 1249 392.848Z" fill="#8EBFD0"/>
<path d="M850 439.348C827.5 392.348 823 487.848 776 507.348L1000.5 510.848C966.5 503.682 874.062 489.612 850 439.348Z" fill="#287D92"/>
</g>
<rect x="17.5" y="17.5" width="1310" height="491" rx="52.5" stroke="#C0925E" stroke-width="15"/>
</svg>
